<svg width="1400" height="900" viewBox="0 0 1400 900" fill="none" xmlns="http://www.w3.org/2000/svg" role="img" aria-label="Ilustracao de parceria entre construtoras">
  <defs>
    <linearGradient id="bg3" x1="180" y1="80" x2="1220" y2="820" gradientUnits="userSpaceOnUse">
      <stop stop-color="#231B17"/>
      <stop offset="1" stop-color="#3A2D24"/>
    </linearGradient>
    <linearGradient id="accent3" x1="0" y1="0" x2="1" y2="1">
      <stop stop-color="#E2D1B8"/>
      <stop offset="1" stop-color="#A88E73"/>
    </linearGradient>
    <filter id="blur3" x="-20%" y="-20%" width="140%" height="140%">
      <feGaussianBlur stdDeviation="24"/>
    </filter>
  </defs>

  <rect width="1400" height="900" rx="42" fill="url(#bg3)"/>
  <rect x="92" y="84" width="1216" height="732" rx="30" fill="rgba(220,212,194,0.04)" stroke="rgba(220,212,194,0.26)"/>

  <g opacity="0.85">
    <rect x="170" y="350" width="220" height="350" rx="20" fill="rgba(220,212,194,0.08)" stroke="rgba(220,212,194,0.35)"/>
    <rect x="420" y="260" width="200" height="440" rx="20" fill="rgba(220,212,194,0.08)" stroke="rgba(220,212,194,0.35)"/>
    <rect x="1020" y="310" width="220" height="390" rx="20" fill="rgba(220,212,194,0.08)" stroke="rgba(220,212,194,0.35)"/>
    <rect x="760" y="230" width="220" height="470" rx="20" fill="rgba(220,212,194,0.08)" stroke="rgba(220,212,194,0.35)"/>

    <g opacity="0.45">
      <path d="M212 392H348" stroke="rgba(220,212,194,0.38)"/>
      <path d="M212 430H348" stroke="rgba(220,212,194,0.38)"/>
      <path d="M212 468H348" stroke="rgba(220,212,194,0.38)"/>
      <path d="M460 310H580" stroke="rgba(220,212,194,0.38)"/>
      <path d="M460 350H580" stroke="rgba(220,212,194,0.38)"/>
      <path d="M800 282H940" stroke="rgba(220,212,194,0.38)"/>
      <path d="M800 322H940" stroke="rgba(220,212,194,0.38)"/>
      <path d="M1060 350H1200" stroke="rgba(220,212,194,0.38)"/>
      <path d="M1060 390H1200" stroke="rgba(220,212,194,0.38)"/>
    </g>
  </g>

  <g>
    <path d="M500 560C550 500 610 490 670 540L735 596C760 619 798 620 823 598L880 548C944 492 1003 500 1056 564" stroke="url(#accent3)" stroke-width="22" stroke-linecap="round"/>
    <path d="M536 592C580 548 624 546 670 582L712 615C757 651 817 651 862 615L906 580C952 544 998 548 1040 592" stroke="rgba(220,212,194,0.62)" stroke-width="10" stroke-linecap="round"/>

    <circle cx="670" cy="540" r="16" fill="#DCD4C2"/>
    <circle cx="880" cy="548" r="16" fill="#DCD4C2"/>
    <circle cx="770" cy="610" r="18" fill="#E2D1B8"/>
  </g>

  <g>
    <rect x="520" y="154" width="370" height="134" rx="24" fill="rgba(220,212,194,0.11)" stroke="rgba(220,212,194,0.36)"/>
    <path d="M568 220H842" stroke="rgba(220,212,194,0.3)" stroke-width="2"/>
    <path d="M568 250H760" stroke="rgba(220,212,194,0.3)" stroke-width="2"/>
    <circle cx="820" cy="250" r="14" fill="url(#accent3)"/>
  </g>

  <g filter="url(#blur3)">
    <ellipse cx="720" cy="740" rx="220" ry="66" fill="rgba(226,209,184,0.18)"/>
  </g>

  <path d="M180 748C330 700 430 698 550 730C690 766 860 770 1218 702" stroke="rgba(220,212,194,0.35)" stroke-width="3" stroke-linecap="round"/>
</svg>
