<svg width="1400" height="900" viewBox="0 0 1400 900" fill="none" xmlns="http://www.w3.org/2000/svg" role="img" aria-label="Cena de servicos de execucao de obras Aspen">
  <defs>
    <linearGradient id="bg" x1="80" y1="60" x2="1280" y2="860" gradientUnits="userSpaceOnUse">
      <stop stop-color="#2D231D"/>
      <stop offset="1" stop-color="#46372D"/>
    </linearGradient>
    <linearGradient id="panel" x1="0" y1="0" x2="1" y2="1">
      <stop stop-color="#DCD4C2" stop-opacity="0.22"/>
      <stop offset="1" stop-color="#A88E73" stop-opacity="0.08"/>
    </linearGradient>
    <linearGradient id="accent" x1="0" y1="0" x2="1" y2="1">
      <stop stop-color="#E2D1B8"/>
      <stop offset="1" stop-color="#A88E73"/>
    </linearGradient>
  </defs>

  <rect width="1400" height="900" rx="36" fill="url(#bg)"/>
  <rect x="70" y="74" width="1260" height="752" rx="28" fill="rgba(220,212,194,0.04)" stroke="rgba(220,212,194,0.25)"/>

  <g opacity="0.35">
    <path d="M130 188H1270" stroke="rgba(220,212,194,0.2)"/>
    <path d="M130 250H1270" stroke="rgba(220,212,194,0.2)"/>
    <path d="M130 312H1270" stroke="rgba(220,212,194,0.2)"/>
    <path d="M130 374H1270" stroke="rgba(220,212,194,0.2)"/>
    <path d="M130 436H1270" stroke="rgba(220,212,194,0.2)"/>
    <path d="M130 498H1270" stroke="rgba(220,212,194,0.2)"/>
    <path d="M130 560H1270" stroke="rgba(220,212,194,0.2)"/>
    <path d="M130 622H1270" stroke="rgba(220,212,194,0.2)"/>
  </g>

  <g>
    <rect x="150" y="500" width="420" height="250" rx="20" fill="url(#panel)" stroke="rgba(220,212,194,0.28)"/>
    <rect x="610" y="420" width="300" height="330" rx="20" fill="url(#panel)" stroke="rgba(220,212,194,0.28)"/>
    <rect x="940" y="350" width="290" height="400" rx="20" fill="url(#panel)" stroke="rgba(220,212,194,0.28)"/>

    <path d="M220 566H500" stroke="rgba(220,212,194,0.28)"/>
    <path d="M220 608H500" stroke="rgba(220,212,194,0.28)"/>
    <path d="M220 650H500" stroke="rgba(220,212,194,0.28)"/>
    <path d="M680 480H840" stroke="rgba(220,212,194,0.28)"/>
    <path d="M680 522H840" stroke="rgba(220,212,194,0.28)"/>
    <path d="M1010 430H1170" stroke="rgba(220,212,194,0.28)"/>
    <path d="M1010 472H1170" stroke="rgba(220,212,194,0.28)"/>
  </g>

  <g>
    <rect x="190" y="170" width="360" height="210" rx="20" fill="rgba(220,212,194,0.12)" stroke="rgba(220,212,194,0.3)"/>
    <path d="M230 326L292 278L350 294L410 248L468 262L514 224" stroke="url(#accent)" stroke-width="5" stroke-linecap="round" stroke-linejoin="round"/>
    <circle cx="292" cy="278" r="7" fill="#E2D1B8"/>
    <circle cx="410" cy="248" r="7" fill="#E2D1B8"/>
  </g>

  <g>
    <rect x="610" y="170" width="620" height="210" rx="20" fill="rgba(220,212,194,0.12)" stroke="rgba(220,212,194,0.3)"/>
    <rect x="670" y="228" width="44" height="94" rx="10" fill="rgba(220,212,194,0.35)"/>
    <rect x="732" y="204" width="44" height="118" rx="10" fill="rgba(220,212,194,0.48)"/>
    <rect x="794" y="244" width="44" height="78" rx="10" fill="rgba(220,212,194,0.3)"/>
    <rect x="856" y="188" width="44" height="134" rx="10" fill="rgba(220,212,194,0.56)"/>
    <rect x="918" y="214" width="44" height="108" rx="10" fill="rgba(220,212,194,0.42)"/>
    <rect x="980" y="232" width="44" height="90" rx="10" fill="rgba(220,212,194,0.36)"/>
    <rect x="1042" y="172" width="44" height="150" rx="10" fill="rgba(220,212,194,0.62)"/>
  </g>

  <g>
    <circle cx="514" cy="732" r="18" fill="#E2D1B8"/>
    <path d="M514 716V748M498 732H530" stroke="#3A2D24" stroke-width="3" stroke-linecap="round"/>
    <circle cx="888" cy="732" r="18" fill="#E2D1B8"/>
    <path d="M888 716V748M872 732H904" stroke="#3A2D24" stroke-width="3" stroke-linecap="round"/>
    <circle cx="1184" cy="732" r="18" fill="#E2D1B8"/>
    <path d="M1184 716V748M1168 732H1200" stroke="#3A2D24" stroke-width="3" stroke-linecap="round"/>
  </g>

  <path d="M120 788C280 732 430 720 610 760C790 800 980 804 1260 738" stroke="rgba(226,209,184,0.34)" stroke-width="4" stroke-linecap="round"/>
</svg>
