<svg width="1400" height="900" viewBox="0 0 1400 900" fill="none" xmlns="http://www.w3.org/2000/svg" role="img" aria-label="Ilustracao de canteiro de obras premium">
  <defs>
    <linearGradient id="bg" x1="120" y1="40" x2="1240" y2="860" gradientUnits="userSpaceOnUse">
      <stop stop-color="#2B221D"/>
      <stop offset="1" stop-color="#46372D"/>
    </linearGradient>
    <linearGradient id="sun" x1="150" y1="120" x2="530" y2="420" gradientUnits="userSpaceOnUse">
      <stop stop-color="#E2D1B8" stop-opacity="0.48"/>
      <stop offset="1" stop-color="#A88E73" stop-opacity="0"/>
    </linearGradient>
    <linearGradient id="steel" x1="0" y1="0" x2="1" y2="1">
      <stop stop-color="#DCD4C2"/>
      <stop offset="1" stop-color="#8C735B"/>
    </linearGradient>
    <filter id="soft" x="-20%" y="-20%" width="140%" height="140%">
      <feGaussianBlur stdDeviation="26"/>
    </filter>
  </defs>

  <rect width="1400" height="900" rx="42" fill="url(#bg)"/>
  <rect x="80" y="84" width="1240" height="732" rx="30" fill="rgba(220,212,194,0.04)" stroke="rgba(220,212,194,0.24)"/>

  <circle cx="290" cy="240" r="200" fill="url(#sun)"/>

  <path d="M120 700H1280" stroke="rgba(220,212,194,0.45)" stroke-width="3" stroke-linecap="round"/>
  <path d="M120 730H1280" stroke="rgba(220,212,194,0.22)" stroke-width="2" stroke-linecap="round"/>

  <g opacity="0.95">
    <rect x="190" y="410" width="80" height="290" rx="8" fill="url(#steel)"/>
    <rect x="175" y="380" width="510" height="24" rx="6" fill="url(#steel)"/>
    <rect x="620" y="382" width="45" height="70" rx="6" fill="url(#steel)"/>
    <path d="M218 410L435 280L645 410" stroke="#DCD4C2" stroke-width="8" stroke-linecap="round"/>
    <path d="M435 280V360" stroke="#DCD4C2" stroke-width="8" stroke-linecap="round"/>
    <rect x="430" y="355" width="22" height="55" rx="4" fill="#DCD4C2"/>
  </g>

  <g opacity="0.9">
    <rect x="790" y="325" width="64" height="375" rx="8" fill="url(#steel)"/>
    <rect x="778" y="295" width="440" height="22" rx="6" fill="url(#steel)"/>
    <rect x="1140" y="300" width="28" height="58" rx="6" fill="url(#steel)"/>
    <path d="M822 325L980 230L1188 325" stroke="#DCD4C2" stroke-width="8" stroke-linecap="round"/>
  </g>

  <g>
    <rect x="332" y="520" width="370" height="180" rx="18" fill="rgba(220,212,194,0.1)" stroke="rgba(220,212,194,0.28)"/>
    <rect x="370" y="478" width="300" height="42" rx="10" fill="rgba(220,212,194,0.18)"/>
    <rect x="760" y="540" width="180" height="160" rx="16" fill="rgba(220,212,194,0.1)" stroke="rgba(220,212,194,0.28)"/>
    <rect x="952" y="502" width="130" height="198" rx="16" fill="rgba(220,212,194,0.08)" stroke="rgba(220,212,194,0.24)"/>
    <rect x="1090" y="560" width="110" height="140" rx="14" fill="rgba(220,212,194,0.08)" stroke="rgba(220,212,194,0.24)"/>
  </g>

  <g filter="url(#soft)">
    <circle cx="1080" cy="760" r="140" fill="rgba(226,209,184,0.16)"/>
  </g>

  <path d="M150 760C300 690 430 700 590 748C760 800 930 816 1220 730" stroke="rgba(226,209,184,0.42)" stroke-width="4" stroke-linecap="round"/>
  <path d="M148 792C320 735 468 744 618 782C794 826 982 840 1232 766" stroke="rgba(198,176,147,0.28)" stroke-width="3" stroke-linecap="round"/>
</svg>
